<?xml version="1.0" encoding="utf-8"?>
<svg version="1.1" id="Слой_1"
	 xmlns="http://www.w3.org/2000/svg" xmlns:xlink="http://www.w3.org/1999/xlink" x="0px" y="0px" viewBox="0 0 374.3 164.9"
	 enable-background="new 0 0 374.3 164.9" xml:space="preserve">
<metadata>
	<sfw>
		<slices></slices>
		<sliceSourceBounds  x="408.8" y="-414.3" width="374.3" height="164.9" bottomLeftOrigin="true"></sliceSourceBounds>
	</sfw>
</metadata>
<path id="XMLID_2_" fill="#FFE08B" d="M105.1,0C93.8,0,78.6,3.1,58.2,18.8C15.6,51.6,0,99.3,0,123.9c0,19.2,8.2,41,31.7,41
	c16.4,0,38.7-6.3,62.5-35.6c0.8-3.5-1.6-6.6-5.1-6.6c-17.2,14.9-27,22.7-41,22.7c-10.6,0-18.8-9-18.8-22.3c0-15.6,2.7-28.1,5.5-34.8
	c56.3-15.6,95-35.2,95-64.9C129.8,13.3,120.8,0,105.1,0z M97.3,12.1c7,0,9,5.1,9,9c0,3.5-3.1,15.2-15.2,26.6
	C76.6,61.4,64.5,68.8,38.7,76.6c4.7-11.3,13.7-29.3,28.9-45.7C81.7,15.6,91.8,12.1,97.3,12.1z"/>
<g id="XMLID_8_">
	<g>
		<path fill="#71CEFB" d="M111.9,112.3H79.4V85.2H64.7v69h14.7v-29h32.6v29h14.8v-69h-14.8V112.3z M165.2,103
			c-15.2,0-25.9,11.7-25.9,26.2c0,16,11.5,26.3,26.7,26.3c7.8,0,15.6-2.4,20.6-6.9l-5.8-8.5c-3.2,3.1-9.1,5-13.3,5
			c-8.5,0-13.5-5.3-14.4-11.6h37.1v-2.9C190.2,114.2,180.1,103,165.2,103z M152.9,124.5c0.6-5,4.1-11.1,12.3-11.1
			c8.7,0,12,6.3,12.3,11.1H152.9z M223.6,103c-7.9,0-15.7,2.5-21.8,7.9l5,8.8c4.2-3.9,9.2-5.9,14.6-5.9c6.6,0,11,3.3,11,8.4v6.7
			c-3.3-3.9-9.2-6.1-15.8-6.1c-8,0-17.4,4.4-17.4,16.1c0,11.2,9.4,16.5,17.4,16.5c6.5,0,12.4-2.4,15.8-6.4v5.2h13.1V122
			C245.4,107.6,235,103,223.6,103z M232.3,142.2c-2.2,2.9-6.3,4.3-10.5,4.3c-5.2,0-9.4-2.7-9.4-7.3c0-4.9,4.2-7.5,9.4-7.5
			c4.2,0,8.4,1.4,10.5,4.3V142.2z M261.1,154.2h13.1v-69h-13.1V154.2z M310.2,143.8c-2.9,0-4.6-2.4-4.6-5.5v-22.5h10.1v-11.5h-10.1
			V90.6h-13.2v13.7h-8.3v11.5h8.3v26.1c0,8.9,5,13.7,14.2,13.7c5.5,0,9-1.4,11-3.2l-2.8-9.9C314,143.1,312.1,143.8,310.2,143.8z
			 M358.1,103c-8.2,0-14.4,3.9-17.6,7.8V85.2h-13.1v69h13.1v-33.6c2.3-3,6.3-5.9,11.4-5.9c5.7,0,9.3,2.2,9.3,9.1v30.4h13.1v-35.5
			C374.3,109,369,103,358.1,103z"/>
	</g>
</g>
</svg>
