<?xml version="1.0" standalone="no"?>
<!DOCTYPE svg PUBLIC "-//W3C//DTD SVG 20010904//EN"
 "http://www.w3.org/TR/2001/REC-SVG-20010904/DTD/svg10.dtd">
<svg version="1.0" xmlns="http://www.w3.org/2000/svg"
 width="700.000000pt" height="700.000000pt" viewBox="0 0 700.000000 700.000000"
 preserveAspectRatio="xMidYMid meet">
<metadata>
Created by potrace 1.11, written by Peter Selinger 2001-2013
</metadata>
<g transform="translate(0.000000,700.000000) scale(0.100000,-0.100000)"
fill="#000000" stroke="none">
<path d="M3417 6944 c-1 -1 -85 -5 -187 -8 -102 -4 -201 -9 -220 -11 -19 -2
-74 -6 -122 -10 -49 -3 -96 -8 -105 -9 -10 -2 -49 -7 -88 -11 -268 -26 -670
-104 -963 -185 -271 -75 -579 -183 -762 -267 -30 -14 -64 -29 -75 -33 -41 -16
-106 -71 -132 -112 -52 -83 -55 -100 -78 -518 -23 -416 -23 -1260 0 -1545 1
-22 6 -83 9 -135 14 -199 27 -332 41 -430 3 -19 7 -61 11 -93 3 -32 7 -66 9
-77 2 -10 7 -40 11 -67 3 -26 8 -57 11 -68 2 -11 6 -38 9 -60 25 -173 113
-533 176 -720 114 -336 331 -714 575 -996 21 -25 56 -67 78 -94 43 -52 386
-400 470 -476 80 -72 245 -210 315 -264 36 -27 67 -52 70 -56 8 -10 239 -177
371 -269 145 -100 361 -238 508 -323 95 -56 109 -61 165 -61 55 -1 69 4 146
48 47 26 103 59 125 71 140 80 685 449 715 485 3 3 21 17 40 30 19 13 37 27
40 30 3 3 52 43 110 89 58 46 112 91 120 100 8 9 29 27 45 39 113 88 426 396
560 552 231 268 431 565 546 810 64 136 166 424 194 548 2 10 22 96 44 192 22
96 42 189 44 205 3 17 10 59 15 95 23 143 39 254 47 335 4 33 8 67 10 75 2 8
7 51 11 95 3 44 7 96 9 115 2 19 7 80 10 135 4 55 8 120 11 145 27 315 21
1250 -11 1710 -14 200 -16 226 -27 260 -17 53 -65 122 -106 151 -93 65 -542
233 -877 328 -194 55 -494 126 -610 144 -16 3 -74 12 -129 21 -54 9 -113 18
-130 21 -17 2 -47 6 -66 9 -55 8 -207 25 -290 31 -41 4 -91 8 -110 10 -62 7
-578 23 -583 19z m636 -1362 c15 -13 16 -65 17 -510 0 -274 0 -516 0 -539 l0
-43 539 0 c517 0 540 -1 553 -19 11 -15 13 -124 13 -540 0 -561 2 -539 -50
-542 -11 0 -253 -1 -537 -1 l-518 -1 0 -542 c0 -490 -2 -544 -16 -556 -14 -11
-113 -14 -532 -14 -460 0 -518 2 -536 16 -19 16 -19 29 -20 555 l-1 539 -538
1 c-473 1 -540 3 -554 17 -14 14 -16 78 -15 537 0 375 4 526 12 534 8 8 168
12 553 16 l542 5 1 525 c1 289 2 533 3 543 0 10 11 21 23 26 12 4 252 7 533 7
413 -1 515 -4 528 -14z"/>
</g>
</svg>
